<svg width="74" height="57" viewBox="0 0 74 57" fill="none" xmlns="http://www.w3.org/2000/svg">
<g clip-path="url(#clip0_15_128)">
<path d="M3.80225 28.8696C9.44099 29.2972 12.1559 28.442 15.9151 25.4488C19.6742 22.4555 24.4776 18.1795 29.4898 17.9657C33.4996 17.7946 38.8181 17.8944 40.9761 17.9657H45.9883" stroke="#1FC853"/>
<path d="M3.80225 41.7521C4.70401 41.7521 7.5018 40.9338 10.0437 41.4575C11.6874 41.7961 14.1114 42.6785 15.9726 42.8375C22.1556 43.3658 25.4744 41.7521 27.4116 41.7521" stroke="#1FC853"/>
<path d="M27.0432 40.8378C27.0432 39.9653 28.4985 39.521 29.3515 39.7043C30.221 39.8911 31.2587 39.4605 32.2964 39.4605C33.3313 39.4605 34.3661 39.3051 35.2343 39.1189C36.3256 38.885 37.4525 39.6856 37.4525 40.8017C37.4525 41.4498 37.0604 42.0325 36.4386 42.215C35.493 42.4924 33.9785 42.8376 32.2964 42.8376C30.2826 42.8376 28.4594 42.2456 27.5863 41.9093C27.2507 41.78 27.0432 41.4534 27.0432 41.0937V40.8378Z" stroke="#1FC853"/>
<path d="M26.0547 35.7838C26.0547 34.8318 27.4326 34.2227 28.3621 34.4282C29.4172 34.6615 30.721 34.4282 32.0248 34.4282C33.2505 34.4282 34.4762 34.1989 35.4953 33.9286C36.6928 33.611 37.9951 34.4759 37.9951 35.7148C37.9951 36.4109 37.5709 37.0351 36.9024 37.2291C35.8142 37.5448 34.0215 37.9529 32.0248 37.9529C29.7922 37.9529 27.8147 37.4427 26.7919 37.1218C26.3422 36.9807 26.0547 36.5583 26.0547 36.087V35.7838Z" stroke="#1FC853"/>
<path d="M27.683 30.8872C27.683 29.9433 29.0877 29.2855 30.0109 29.482C31.0345 29.6999 32.4183 29.482 33.6533 29.482C34.88 29.482 36.1066 29.2627 37.1262 29.0044C38.3305 28.6992 39.6234 29.5725 39.6234 30.8149C39.6234 31.5202 39.1937 32.1525 38.5162 32.3485C37.4267 32.6637 35.6411 33.0682 33.6533 33.0682C31.4179 33.0682 29.4383 32.5567 28.4166 32.2359C27.9692 32.0955 27.683 31.6752 27.683 31.2063V30.8872Z" stroke="#1FC853"/>
<path d="M55.2169 17.4033L42.4683 13.3546C40.9846 12.8834 39.3999 13.7042 38.9287 15.1879L31.4284 38.8053C30.9572 40.289 31.778 41.8737 33.2617 42.3449L46.0102 46.3936C47.4939 46.8648 49.0787 46.044 49.5499 44.5603L57.0502 20.9429C57.5214 19.4592 56.7006 17.8745 55.2169 17.4033Z" stroke="#1FC853" stroke-linecap="round" stroke-linejoin="round"/>
<path d="M43.0506 36.8046L40.0042 35.8371C39.5096 35.6801 38.9814 35.9537 38.8243 36.4482L37.8568 39.4947C37.6998 39.9892 37.9734 40.5175 38.4679 40.6745L41.5144 41.642C42.0089 41.7991 42.5372 41.5255 42.6942 41.0309L43.6617 37.9845C43.8188 37.4899 43.5452 36.9617 43.0506 36.8046Z" stroke="#1FC853" stroke-linecap="round" stroke-linejoin="round"/>
<path d="M42.0564 37.8183L40.2312 37.2387C40.0664 37.1864 39.8903 37.2776 39.8379 37.4424L39.2583 39.2675C39.206 39.4324 39.2972 39.6085 39.462 39.6608L41.2872 40.2405C41.452 40.2928 41.6281 40.2016 41.6804 40.0368L42.2601 38.2116C42.3124 38.0468 42.2212 37.8707 42.0564 37.8183Z" stroke="#1FC853" stroke-linecap="round" stroke-linejoin="round"/>
<path d="M54.1448 21.7194C54.4632 20.7171 53.9087 19.6465 52.9063 19.3282C51.904 19.0099 50.8334 19.5644 50.5151 20.5667C50.1968 21.569 50.7513 22.6396 51.7536 22.958C52.7559 23.2763 53.8265 22.7218 54.1448 21.7194Z" stroke="#1FC853"/>
<path d="M45.0518 17.8372C44.5672 17.2607 43.9189 16.8103 43.1481 16.5655C42.4879 16.3558 41.814 16.3213 41.1765 16.4358" stroke="#1FC853" stroke-linecap="round"/>
<path d="M44.0824 18.6536C43.747 18.2545 43.2981 17.9426 42.7645 17.7731C42.3075 17.628 41.8409 17.6041 41.3996 17.6834" stroke="#1FC853" stroke-linecap="round"/>
<path d="M43.1134 19.4699C42.927 19.2481 42.6776 19.0749 42.3811 18.9807C42.1273 18.9001 41.8681 18.8868 41.6229 18.9309" stroke="#1FC853" stroke-linecap="round"/>
<path d="M44.9991 42.4127L50.0346 26.5568" stroke="#1FC853" stroke-linecap="round" stroke-linejoin="round"/>
<path d="M47.4144 43.1796L49.7155 35.9337" stroke="#1FC853" stroke-linecap="round" stroke-linejoin="round"/>
<path d="M26.4146 20.895C27.4461 20.766 30.1308 19.9688 32.839 19.7709C35.8304 19.5521 38.8506 19.9397 39.7038 19.9766C42.5324 20.099 44.6165 21.4957 46.0223 21.8077C48.236 22.299 48.2905 24.7706 45.0404 25.2107C44.0266 25.3479 41.968 24.2425 39.7038 24.6555C36.161 25.3019 32.7901 24.3017 30.8904 25.9299C28.9908 27.5582 28.6941 30.1216 24.7864 33.3781C19.9017 37.4487 19.6303 36.906 14.7456 36.906" stroke="#1FC853" stroke-linecap="round" stroke-linejoin="round"/>
<path d="M60.8022 12.5275V17.5385" stroke="#1FC853" stroke-linecap="round"/>
<path d="M58.2967 15.033H63.3077" stroke="#1FC853" stroke-linecap="round"/>
<g opacity="0.6">
<path d="M71.4506 42.5934V45.0989" stroke="#1FC853" stroke-linecap="round"/>
<path d="M70.1978 43.8462H72.7033" stroke="#1FC853" stroke-linecap="round"/>
</g>
<path d="M15.7033 53.8682V56.3737" stroke="#1FC853" stroke-linecap="round"/>
<path d="M14.4506 55.1208H16.9561" stroke="#1FC853" stroke-linecap="round"/>
<path d="M58.9231 34.4506V36.9561" stroke="#1FC853" stroke-linecap="round"/>
<path d="M57.6703 35.7032H60.1758" stroke="#1FC853" stroke-linecap="round"/>
<path d="M2.5495 11.9011V14.4066" stroke="#1FC853" stroke-linecap="round"/>
<path d="M1.29675 13.1538H3.80225" stroke="#1FC853" stroke-linecap="round"/>
<path d="M34.1813 0.626343V3.75821" stroke="#1FC853" stroke-linecap="round"/>
<path d="M32.6154 2.19226H35.7473" stroke="#1FC853" stroke-linecap="round"/>
<g opacity="0.2">
<path d="M31.6758 48.8572V51.989" stroke="#1FC853" stroke-linecap="round"/>
<path d="M30.1099 50.4231H33.2418" stroke="#1FC853" stroke-linecap="round"/>
</g>
<path opacity="0.2" d="M56.4176 2.19228L58.9231 3.75821V0.626343L56.4176 2.19228Z" stroke="#1FC853" stroke-linejoin="round"/>
<path opacity="0.6" d="M71.4506 25.9945L68.9451 24.4286V27.5605L71.4506 25.9945Z" stroke="#1FC853" stroke-linejoin="round"/>
<path d="M56.1044 53.2417L57.6704 50.7362H54.5385L56.1044 53.2417Z" stroke="#1FC853" stroke-linejoin="round"/>
<path opacity="0.6" d="M19.7747 10.022L18.2088 12.5275H21.3407L19.7747 10.022Z" stroke="#1FC853" stroke-linejoin="round"/>
</g>
<defs>
<clipPath id="clip0_15_128">
<rect width="72.6593" height="57" fill="white" transform="translate(0.670349)"/>
</clipPath>
</defs>
</svg>
