<?xml version="1.0" encoding="utf-8"?>
<!-- Generator: Adobe Illustrator 28.0.0, SVG Export Plug-In . SVG Version: 6.00 Build 0)  -->
<svg version="1.1" id="Layer_1" xmlns="http://www.w3.org/2000/svg" xmlns:xlink="http://www.w3.org/1999/xlink" x="0px" y="0px"
	 viewBox="0 0 426 37" style="enable-background:new 0 0 426 37;" xml:space="preserve">
<style type="text/css">
	.st0{fill:none;}
	.st1{fill:#fff;}
	.st2{fill:#fff;}
	
</style>
<g>
	
	<path class="st1" d="M409,36.1c-4.2,1.6-5.9,0.1-5.9-0.9C404.5,35.1,408.1,34.9,409,36.1z M414.3,34.8c-1,0.8-2.3,1.1-3.6,1
		c-1.3-0.1-2.5-0.6-3.5-1.5C408.7,33.9,412.6,33.4,414.3,34.8L414.3,34.8z M407.2,31.6c0.2,2-1.9,3.2-4.2,3.3
		C403.4,32.9,405.5,32,407.2,31.6z M411.2,29.7c0.2,0.9-0.1,3.2-3.3,4.2C408,32.3,408.9,30.2,411.2,29.7z M417.6,32.1
		c-0.8,0.8-1.9,1.3-3.1,1.4c-1.2,0.1-2.3-0.2-3.3-0.9C412.5,32,415.6,31.1,417.6,32.1L417.6,32.1z M414.2,27.4
		c0.4,0.9,0.5,3.3-2.3,4.8C411.7,30.5,412.3,27.9,414.2,27.4z M421.3,28.3c-0.3,0.5-0.6,1-1.1,1.4s-1,0.7-1.6,0.8s-1.2,0.2-1.7,0.1
		c-0.6-0.1-1.1-0.3-1.6-0.6C417,28.4,419.9,27.7,421.3,28.3z M417,23.8c1.3,2.2-0.1,4.8-1.5,5.9C414.9,27.5,415.4,25.3,417,23.8
		L417,23.8L417,23.8z M423.6,23.7c0.1,3.5-3.5,3.3-5.2,3.3C419,26.2,422,23.6,423.6,23.7z M419.2,20.4c0.7,0.7,1.7,3.6-0.6,5.9
		C417.9,24.7,417.7,22.1,419.2,20.4L419.2,20.4L419.2,20.4z M425.5,18.9c0.1,2.8-2.2,4.2-4.5,4.2C421.7,21.7,423.5,19.1,425.5,18.9z
		 M420.8,16.9c1.5,0.9,1.3,3.8,0.5,5.3C420.2,20.8,419.5,19.1,420.8,16.9z M425.6,14.3c0.8,2.6-1.5,4.3-2.8,4.4
		C423.2,17.5,423.6,15.3,425.6,14.3C425.6,14.3,425.6,14.3,425.6,14.3z M421,13.4c1.7,0.8,2.5,2.8,1.8,4.6
		C421.7,17.1,420.3,15.2,421,13.4z M425.7,10.3c1,3.1-1.3,4.1-2.2,4.4C423.6,13.4,424.4,10.8,425.7,10.3z M421.1,9.5
		c0.7,0.2,2.6,1.8,2.2,4.6C422.1,13.4,420.5,12.1,421.1,9.5z M425,5.6c1.1,3.8-0.8,5.4-1.4,5.7C423.5,10.1,423.4,7.3,425,5.6z
		 M420.7,5.7c1.2,0.3,2.7,2.6,2.7,4.7C422.2,9.9,420.4,7.6,420.7,5.7z M421.1-0.2c2.8,2.9,3.2,5.2,2.4,8
		C422.2,6.7,421.2,3.2,421.1-0.2z M321,36.1c4.2,1.6,5.9,0.1,5.9-0.9C325.5,35.1,321.9,34.9,321,36.1z M315.6,34.8
		c1,0.8,2.3,1.1,3.6,1c1.3-0.1,2.5-0.6,3.5-1.5C321.3,33.8,317.4,33.4,315.6,34.8L315.6,34.8z M322.8,31.6c-0.2,2,1.9,3.2,4.2,3.3
		C326.5,32.9,324.4,32,322.8,31.6z M318.8,29.7c-0.2,0.9,0.1,3.2,3.3,4.2C321.9,32.3,321.1,30.2,318.8,29.7z M312.3,32.1
		c0.8,0.8,1.9,1.3,3.1,1.4c1.2,0.1,2.3-0.2,3.3-0.9C317.4,32,314.3,31.1,312.3,32.1L312.3,32.1z M315.8,27.3
		c-0.4,0.9-0.5,3.3,2.3,4.8C318.3,30.5,317.6,27.9,315.8,27.3z M308.7,28.3c0.3,0.5,0.6,1,1.1,1.4s1,0.7,1.6,0.8s1.2,0.2,1.7,0.1
		c0.6-0.1,1.1-0.3,1.6-0.6C312.9,28.4,310.1,27.7,308.7,28.3z M313,23.8c-1.3,2.2,0.1,4.8,1.5,5.9C315.1,27.5,314.5,25.2,313,23.8
		L313,23.8L313,23.8z M306.3,23.6c-0.1,3.5,3.5,3.3,5.2,3.3C310.9,26.2,308,23.6,306.3,23.6z M310.8,20.4c-0.7,0.7-1.7,3.6,0.6,5.9
		C312.1,24.6,312.2,22.1,310.8,20.4L310.8,20.4L310.8,20.4z M304.4,18.9c-0.1,2.8,2.2,4.2,4.5,4.2C308.2,21.7,306.4,19.1,304.4,18.9
		z M309.2,16.9c-1.5,0.9-1.3,3.8-0.5,5.3C309.7,20.8,310.5,19.1,309.2,16.9z M304.3,14.3c-0.8,2.6,1.5,4.3,2.8,4.4
		C306.7,17.5,306.3,15.3,304.3,14.3C304.3,14.3,304.3,14.3,304.3,14.3z M308.9,13.4c-1.7,0.8-2.5,2.8-1.8,4.6
		C308.2,17.1,309.6,15.1,308.9,13.4z M304.2,10.3c-1,3.1,1.3,4.1,2.2,4.4C306.3,13.4,305.5,10.8,304.2,10.3z M308.9,9.5
		c-0.7,0.2-2.6,1.8-2.2,4.6C307.9,13.4,309.4,12.1,308.9,9.5z M304.9,5.6c-1.1,3.8,0.8,5.4,1.4,5.7C306.4,10.1,306.6,7.3,304.9,5.6z
		 M309.2,5.7c-1.2,0.3-2.7,2.6-2.7,4.7C307.7,9.8,309.5,7.6,309.2,5.7z M308.8-0.2c-2.8,2.9-3.2,5.2-2.4,8
		C307.7,6.7,308.7,3.2,308.8-0.2z"/>
	<path class="st1" d="M104.9,36.1c-4.2,1.6-5.9,0.1-5.9-0.9C100.5,35.1,104.1,34.9,104.9,36.1z M110.3,34.8c-1.1,0.8-2.3,1.1-3.6,1
		c-1.3-0.1-2.5-0.6-3.4-1.5C104.7,33.9,108.6,33.4,110.3,34.8z M103.2,31.6c0.2,2-1.9,3.2-4.2,3.3C99.4,32.9,101.5,32,103.2,31.6z
		 M107.2,29.7c0.2,0.9-0.1,3.2-3.3,4.2C104,32.3,104.9,30.2,107.2,29.7z M113.6,32.1c-0.8,0.8-1.9,1.3-3.1,1.4s-2.3-0.2-3.3-0.9
		C108.5,32,111.6,31.1,113.6,32.1L113.6,32.1z M110.2,27.4c0.4,0.9,0.5,3.3-2.3,4.8C107.7,30.5,108.3,27.9,110.2,27.4z M117.3,28.3
		c-0.3,0.5-0.6,1-1.1,1.4s-1,0.7-1.6,0.8s-1.2,0.2-1.7,0.1c-0.6-0.1-1.2-0.3-1.7-0.6C113,28.4,115.9,27.7,117.3,28.3z M113,23.8
		c1.3,2.2-0.1,4.8-1.5,5.9C110.9,27.5,111.5,25.3,113,23.8z M119.7,23.7c0.2,3.5-3.5,3.3-5.2,3.3C115,26.2,118,23.6,119.7,23.7z
		 M115.2,20.4c0.7,0.7,1.7,3.6-0.6,5.9C113.9,24.7,113.8,22.1,115.2,20.4z M121.6,18.9c0.1,2.8-2.2,4.2-4.5,4.2
		C117.7,21.7,119.6,19.1,121.6,18.9z M116.8,16.9c1.5,0.9,1.3,3.8,0.4,5.3C116.2,20.8,115.5,19.1,116.8,16.9z M121.7,14.3
		c0.8,2.6-1.4,4.3-2.8,4.4C119.2,17.5,119.7,15.3,121.7,14.3z M117,13.4c1.7,0.8,2.5,2.8,1.8,4.6C117.7,17.1,116.3,15.2,117,13.4z
		 M121.7,10.3c1,3.1-1.3,4.1-2.2,4.4C119.6,13.4,120.5,10.8,121.7,10.3z M117.1,9.5c0.7,0.2,2.6,1.8,2.2,4.6
		C118.1,13.4,116.6,12.1,117.1,9.5z M121,5.6c1.2,3.8-0.8,5.4-1.4,5.7C119.5,10.1,119.4,7.3,121,5.6z M116.8,5.7
		c1.2,0.3,2.7,2.6,2.7,4.7C118.2,9.9,116.4,7.6,116.8,5.7z M117.1-0.2c2.8,2.9,3.2,5.2,2.4,8C118.2,6.7,117.2,3.2,117.1-0.2z
		 M17,36.1c4.2,1.6,5.9,0.1,5.9-0.9C21.5,35.1,17.9,34.9,17,36.1z M11.7,34.8c1.1,0.8,2.3,1.1,3.6,1c1.3-0.1,2.5-0.6,3.4-1.5
		C17.3,33.9,13.4,33.4,11.7,34.8z M18.8,31.6c-0.2,2,1.9,3.2,4.2,3.3C22.6,32.9,20.5,32,18.8,31.6z M14.8,29.7
		c-0.2,0.9,0.1,3.2,3.3,4.2C18,32.3,17.1,30.2,14.8,29.7z M8.4,32.1c0.8,0.8,1.9,1.3,3.1,1.4s2.3-0.2,3.3-0.9
		C13.5,32,10.4,31.1,8.4,32.1L8.4,32.1z M11.8,27.4c-0.4,0.9-0.5,3.3,2.3,4.8C14.3,30.5,13.7,27.9,11.8,27.4z M4.7,28.3
		c0.3,0.5,0.6,1,1.1,1.4s1,0.7,1.6,0.8c0.6,0.2,1.2,0.2,1.7,0.1c0.6-0.1,1.1-0.3,1.6-0.6C9,28.4,6.1,27.7,4.7,28.3z M9,23.8
		c-1.3,2.2,0.1,4.8,1.5,5.9C11.1,27.5,10.5,25.3,9,23.8z M2.3,23.7c-0.2,3.5,3.5,3.3,5.2,3.3C7,26.2,4,23.6,2.3,23.7z M6.8,20.4
		c-0.7,0.7-1.7,3.6,0.6,5.9C8.1,24.7,8.2,22.1,6.8,20.4z M0.4,18.9c-0.1,2.8,2.2,4.2,4.5,4.2C4.3,21.7,2.5,19.1,0.4,18.9z M5.2,16.9
		c-1.5,0.9-1.3,3.8-0.4,5.3C5.8,20.8,6.5,19.1,5.2,16.9z M0.3,14.3c-0.8,2.6,1.5,4.3,2.8,4.4C2.8,17.5,2.3,15.4,0.3,14.3z M4.9,13.5
		c-1.7,0.8-2.5,2.8-1.8,4.6C4.3,17.1,5.7,15.2,4.9,13.5z M0.3,10.4c-1,3.1,1.3,4.1,2.2,4.4C2.4,13.4,1.5,10.8,0.3,10.4z M4.9,9.6
		c-0.7,0.2-2.6,1.8-2.2,4.6C3.9,13.4,5.4,12.1,4.9,9.6z M0.9,5.7c-1.1,3.8,0.8,5.4,1.4,5.7C2.4,10.2,2.6,7.3,0.9,5.7z M5.2,5.8
		C4,6.1,2.5,8.3,2.5,10.4C3.8,9.9,5.5,7.6,5.2,5.8z M4.9-0.2C2.1,2.7,1.7,5,2.5,7.8C3.8,6.7,4.8,3.2,4.9-0.2z"/>
	<path class="st1" d="M257,36.1c-4.2,1.6-5.9,0.1-5.9-0.9C252.5,35.1,256.1,34.9,257,36.1z M262.3,34.8c-1,0.8-2.3,1.1-3.6,1
		c-1.3-0.1-2.5-0.6-3.4-1.5C256.7,33.9,260.6,33.4,262.3,34.8z M255.2,31.6c0.2,2-1.9,3.2-4.2,3.3C251.4,32.9,253.5,32,255.2,31.6z
		 M259.2,29.7c0.2,0.9-0.1,3.2-3.3,4.2C256,32.3,256.9,30.2,259.2,29.7z M265.6,32.1c-0.8,0.8-1.9,1.3-3.1,1.4
		c-1.2,0.1-2.3-0.2-3.3-0.9C260.5,32,263.6,31.1,265.6,32.1L265.6,32.1z M262.2,27.4c0.4,0.9,0.5,3.3-2.3,4.8
		C259.7,30.5,260.3,27.9,262.2,27.4z M269.3,28.3c-0.3,0.5-0.6,1-1.1,1.4s-1,0.7-1.6,0.8s-1.2,0.2-1.7,0.1c-0.6-0.1-1.1-0.3-1.6-0.6
		C265,28.4,267.9,27.7,269.3,28.3z M265,23.8c1.3,2.2-0.1,4.8-1.5,5.9C262.9,27.5,263.5,25.3,265,23.8L265,23.8L265,23.8z
		 M271.6,23.7c0.1,3.5-3.5,3.3-5.2,3.3C267,26.2,270,23.6,271.6,23.7z M267.2,20.4c0.7,0.7,1.7,3.6-0.6,5.9
		C265.9,24.7,265.8,22.1,267.2,20.4L267.2,20.4L267.2,20.4z M273.5,18.9c0.1,2.8-2.2,4.2-4.5,4.2C269.7,21.7,271.5,19.1,273.5,18.9z
		 M268.8,16.9c1.5,0.9,1.3,3.8,0.5,5.3C268.2,20.8,267.5,19.1,268.8,16.9z M273.6,14.3c0.8,2.6-1.5,4.3-2.8,4.4
		C271.2,17.5,271.6,15.3,273.6,14.3C273.6,14.3,273.6,14.3,273.6,14.3z M269,13.4c1.7,0.8,2.5,2.8,1.8,4.6
		C269.7,17.1,268.3,15.2,269,13.4z M273.7,10.3c1,3.1-1.3,4.1-2.2,4.4C271.6,13.4,272.5,10.8,273.7,10.3z M269.1,9.5
		c0.7,0.2,2.6,1.8,2.2,4.6C270.1,13.4,268.5,12.1,269.1,9.5z M273,5.6c1.1,3.8-0.8,5.4-1.4,5.7C271.5,10.1,271.4,7.3,273,5.6z
		 M268.8,5.7c1.2,0.3,2.7,2.6,2.7,4.7C270.2,9.9,268.4,7.6,268.8,5.7z M269.1-0.2c2.8,2.9,3.2,5.2,2.4,8
		C270.2,6.7,269.2,3.2,269.1-0.2z M169,36.1c4.2,1.6,5.9,0.1,5.9-0.9C173.5,35.1,169.9,34.9,169,36.1z M163.6,34.8
		c1.1,0.8,2.3,1.1,3.6,1s2.5-0.6,3.4-1.5C169.3,33.8,165.4,33.4,163.6,34.8z M170.8,31.6c-0.2,2,1.9,3.2,4.2,3.3
		C174.5,32.9,172.4,32,170.8,31.6z M166.8,29.7c-0.2,0.9,0.1,3.2,3.3,4.2C169.9,32.3,169.1,30.2,166.8,29.7z M160.3,32.1
		c0.8,0.8,1.9,1.3,3.1,1.4s2.3-0.2,3.3-0.9C165.4,32,162.3,31.1,160.3,32.1z M163.8,27.3c-0.4,0.9-0.5,3.3,2.3,4.8
		C166.3,30.5,165.6,27.9,163.8,27.3z M156.7,28.3c0.3,0.5,0.6,1,1.1,1.4s1,0.7,1.6,0.8c0.6,0.2,1.2,0.2,1.7,0.1
		c0.6-0.1,1.1-0.3,1.6-0.6C160.9,28.4,158,27.7,156.7,28.3z M161,23.8c-1.3,2.2,0.1,4.8,1.5,5.9C163.1,27.5,162.5,25.2,161,23.8
		L161,23.8L161,23.8z M154.3,23.6c-0.1,3.5,3.5,3.3,5.2,3.3C158.9,26.2,156,23.6,154.3,23.6z M158.8,20.4c-0.7,0.7-1.7,3.6,0.6,5.9
		C160,24.6,160.2,22.1,158.8,20.4z M152.4,18.9c-0.1,2.8,2.2,4.2,4.5,4.2C156.2,21.7,154.4,19.1,152.4,18.9z M157.2,16.9
		c-1.5,0.9-1.3,3.8-0.4,5.3C157.7,20.8,158.5,19.1,157.2,16.9z M152.3,14.3c-0.8,2.6,1.4,4.3,2.8,4.4
		C154.7,17.5,154.3,15.3,152.3,14.3z M156.9,13.4c-1.7,0.8-2.5,2.8-1.8,4.6C156.2,17.1,157.6,15.1,156.9,13.4z M152.2,10.3
		c-1,3.1,1.3,4.1,2.2,4.4C154.3,13.4,153.5,10.8,152.2,10.3z M156.9,9.5c-0.7,0.2-2.6,1.8-2.2,4.6C155.9,13.4,157.4,12.1,156.9,9.5z
		 M152.9,5.6c-1.1,3.8,0.8,5.4,1.4,5.7C154.4,10.1,154.6,7.3,152.9,5.6z M157.2,5.7c-1.2,0.3-2.7,2.6-2.7,4.7
		C155.7,9.8,157.5,7.6,157.2,5.7z M156.8-0.2c-2.8,2.9-3.2,5.2-2.4,8C155.7,6.7,156.7,3.2,156.8-0.2z"/>
	<path class="st2" d="M196.1,10.1h-1.8c-0.2-0.4-0.7-0.7-1.3-0.7c-1,0-1.7,0.7-1.7,1.9c0,1.2,0.7,1.9,1.8,1.9c0.8,0,1.3-0.4,1.6-1.1h-2v-1.2h3.4
		v1.5c-0.3,1.1-1.4,2.2-3.1,2.2c-1.9,0-3.3-1.4-3.3-3.3s1.4-3.3,3.3-3.3C194.7,7.9,195.8,8.7,196.1,10.1L196.1,10.1z"/>
	<path class="st2" d="M197.1,8h1.6v3.9c0,0.8,0.4,1.2,1.1,1.2s1.1-0.4,1.1-1.2V8h1.6v3.9c0,1.8-1.3,2.7-2.8,2.7s-2.7-0.9-2.7-2.7L197.1,8
		L197.1,8z"/>
	<path class="st2" d="M203.7,8h1.6v6.5h-1.6V8z"/>
	<path class="st2" d="M212.2,8v6.5h-1.6l-2.6-4v4h-1.6V8h1.6l2.6,4V8H212.2z"/>
	<path class="st2" d="M219.2,8v6.5h-1.6l-2.6-4v4h-1.6V8h1.6l2.6,4V8H219.2z"/>
	<path class="st2" d="M224.3,9.3h-2.4v1.3h2.1v1.2h-2.1v1.4h2.4v1.3h-4V8h4V9.3L224.3,9.3z"/>
	<path class="st2" d="M227.7,14.6c-1.4,0-2.5-0.7-2.5-2h1.7c0.1,0.5,0.4,0.7,0.8,0.7s0.8-0.2,0.8-0.6c0-1.2-3.2-0.6-3.2-2.9c0-1.2,1-1.9,2.4-1.9
		s2.4,0.7,2.4,1.9h-1.7c0-0.4-0.3-0.7-0.8-0.7c-0.4,0-0.7,0.2-0.7,0.6c0,1.1,3.2,0.6,3.2,2.8C230.1,13.7,229.2,14.6,227.7,14.6
		L227.7,14.6z"/>
	<path class="st2" d="M233.4,14.6c-1.4,0-2.5-0.7-2.5-2h1.7c0.1,0.5,0.4,0.7,0.8,0.7s0.8-0.2,0.8-0.6c0-1.2-3.2-0.6-3.2-2.9c0-1.2,1-1.9,2.4-1.9
		s2.4,0.7,2.4,1.9H234c0-0.4-0.3-0.7-0.8-0.7c-0.4,0-0.7,0.2-0.7,0.6c0,1.1,3.2,0.6,3.2,2.8C235.8,13.7,234.9,14.6,233.4,14.6
		L233.4,14.6z"/>
	<path class="st2" d="M176.9,18h1.7l0.9,4.7l1.2-4.7h1.7l1.1,4.7l0.9-4.7h1.7l-1.7,6.5h-1.9l-1-4.3l-1.1,4.3h-1.9L176.9,18L176.9,18z"/>
	<path class="st2" d="M190,24.6c-1.8,0-3.3-1.4-3.3-3.3s1.5-3.3,3.3-3.3s3.3,1.4,3.3,3.3S191.9,24.6,190,24.6z M190,23.1c1,0,1.7-0.8,1.7-1.9
		s-0.7-1.9-1.7-1.9s-1.7,0.7-1.7,1.9S189,23.1,190,23.1z"/>
	<path class="st2" d="M196.9,18c1.6,0,2.4,0.9,2.4,2c0,0.8-0.4,1.6-1.4,1.9l1.5,2.6h-1.8l-1.4-2.5h-0.4v2.5h-1.6V18L196.9,18L196.9,18z
		 M196.8,19.3h-1V21h1c0.6,0,0.9-0.3,0.9-0.8C197.7,19.7,197.4,19.3,196.8,19.3L196.8,19.3z"/>
	<path class="st2" d="M201.9,18v5.3h2.1v1.2h-3.7V18H201.9L201.9,18z"/>
	<path class="st2" d="M210.6,21.3c0,1.9-1.3,3.2-3.4,3.2h-2.4V18h2.4C209.2,18,210.6,19.3,210.6,21.3z M207,23.1c1.2,0,1.9-0.7,1.9-1.9
		s-0.7-1.9-1.9-1.9h-0.8v3.8C206.3,23.2,207,23.2,207,23.1z"/>
	<path class="st2" d="M216.1,18c1.6,0,2.4,0.9,2.4,2c0,0.8-0.4,1.6-1.4,1.9l1.5,2.6h-1.8l-1.4-2.5H215v2.5h-1.6V18L216.1,18L216.1,18z M216,19.3
		h-1V21h1c0.6,0,0.9-0.3,0.9-0.8C216.8,19.7,216.6,19.3,216,19.3L216,19.3z"/>
	<path class="st2" d="M223.4,19.3H221v1.3h2.1v1.2H221v1.4h2.4v1.3h-4V18h4V19.3L223.4,19.3z"/>
	<path class="st2" d="M227.5,17.9c1.6,0,2.7,0.9,3.1,2.3h-1.7c-0.3-0.6-0.8-0.8-1.4-0.8c-1,0-1.6,0.7-1.6,1.9s0.7,1.9,1.6,1.9
		c0.6,0,1.1-0.3,1.4-0.8h1.7c-0.4,1.4-1.5,2.3-3.1,2.3c-1.9,0-3.3-1.4-3.3-3.3S225.5,17.9,227.5,17.9z"/>
	<path class="st2" d="M234.6,24.6c-1.8,0-3.3-1.4-3.3-3.3s1.5-3.3,3.3-3.3s3.3,1.4,3.3,3.3S236.4,24.6,234.6,24.6z M234.6,23.1
		c1,0,1.7-0.8,1.7-1.9s-0.7-1.9-1.7-1.9s-1.7,0.7-1.7,1.9S233.5,23.1,234.6,23.1z"/>
	<path class="st2" d="M241.5,18c1.6,0,2.4,0.9,2.4,2c0,0.8-0.4,1.6-1.4,1.9l1.5,2.6h-1.8l-1.4-2.5h-0.4v2.5h-1.6V18L241.5,18L241.5,18z
		 M241.4,19.3h-1V21h1c0.6,0,0.9-0.3,0.9-0.8C242.2,19.7,242,19.3,241.4,19.3L241.4,19.3z"/>
	<path class="st2" d="M250.7,21.3c0,1.9-1.3,3.2-3.4,3.2h-2.4V18h2.4C249.4,18,250.7,19.3,250.7,21.3z M247.2,23.1c1.2,0,1.9-0.7,1.9-1.9
		s-0.7-1.9-1.9-1.9h-0.8v3.8C246.4,23.2,247.2,23.2,247.2,23.1z"/>
	<path class="st2" d="M205.2,33.2c1.1-0.9,2.3-1.8,2.3-2.7c0-0.4-0.2-0.6-0.5-0.6s-0.6,0.3-0.6,0.8h-1.2c0-1.3,0.9-1.8,1.8-1.8
		c1.2,0,1.7,0.7,1.7,1.6c0,1.1-1,2.1-1.9,2.7h1.9v1h-3.6L205.2,33.2L205.2,33.2z"/>
	<path class="st2" d="M211.4,28.9c1.5,0,2,1.1,2,2.6c0,1.5-0.5,2.7-2,2.7s-2-1.1-2-2.7S209.9,28.9,211.4,28.9z M211.4,30c-0.7,0-0.8,0.7-0.8,1.5
		s0.1,1.5,0.8,1.5s0.8-0.7,0.8-1.5S212.1,30,211.4,30z"/>
	<path class="st2" d="M214,33.2c1.1-0.9,2.3-1.8,2.3-2.7c0-0.4-0.2-0.6-0.5-0.6s-0.6,0.3-0.6,0.8H214c0-1.3,0.9-1.8,1.8-1.8
		c1.2,0,1.7,0.7,1.7,1.6c0,1.1-1,2.1-1.9,2.7h1.9v1H214L214,33.2L214,33.2z"/>
	<path class="st2" d="M220.6,33.3h-2.4v-1l2.3-3.2h1.4v3.2h0.6v1.1h-0.6v0.9h-1.2L220.6,33.3L220.6,33.3z M220.7,32.2v-1.8l-1.2,1.8H220.7z"/>
	<path class="st2" d="M354.2,12.2h-1v2.3h-1.6V8h2.6c1.6,0,2.4,0.9,2.4,2.1C356.6,11.2,355.8,12.2,354.2,12.2L354.2,12.2z M354,10.9
		c0.6,0,0.9-0.3,0.9-0.8s-0.3-0.8-0.9-0.8h-0.9v1.6H354z"/>
	<path class="st2" d="M360,8c1.6,0,2.4,0.9,2.4,2.1c0,0.8-0.4,1.6-1.4,1.9l1.5,2.6h-1.8l-1.4-2.4H359v2.4h-1.6V8L360,8L360,8z M359.9,9.3h-1v1.6
		h1c0.6,0,0.9-0.3,0.9-0.8C360.8,9.7,360.5,9.3,359.9,9.3L359.9,9.3z"/>
	<path class="st2" d="M366.5,14.6c-1.8,0-3.3-1.4-3.3-3.3s1.5-3.3,3.3-3.3s3.3,1.4,3.3,3.3S368.3,14.6,366.5,14.6z M366.5,13.1
		c1,0,1.7-0.8,1.7-1.9s-0.7-1.9-1.7-1.9s-1.7,0.7-1.7,1.9S365.4,13.1,366.5,13.1z"/>
	<path class="st2" d="M370.7,8h4.2v1.3h-2.6v1.4h2v1.2h-2v2.6h-1.6L370.7,8L370.7,8z"/>
	<path class="st2" d="M378.4,12.5l-1.2,2h-1.8l2.1-3.3L375.4,8h1.8l1.3,2l1.1-2h1.8l-2.1,3.3l2.1,3.2h-1.8L378.4,12.5L378.4,12.5z"/>
	<path class="st2" d="M334.6,23.4h-2.4l-0.4,1.1h-1.7l2.4-6.5h1.8l2.4,6.5H335L334.6,23.4L334.6,23.4z M333.4,19.8l-0.8,2.4h1.6L333.4,19.8
		L333.4,19.8z"/>
	<path class="st2" d="M337.1,18h1.7l0.9,4.7l1.2-4.7h1.7l1.1,4.7l1-4.7h1.7l-1.7,6.5h-1.9l-1-4.3l-1.1,4.3h-1.9L337.1,18L337.1,18z"/>
	<path class="st2" d="M351.2,23.4h-2.4l-0.4,1.1h-1.7l2.4-6.5h1.8l2.4,6.5h-1.7L351.2,23.4L351.2,23.4z M350,19.8l-0.8,2.4h1.6L350,19.8
		L350,19.8z"/>
	<path class="st2" d="M356.7,18c1.6,0,2.4,0.9,2.4,2c0,0.8-0.4,1.6-1.4,1.9l1.5,2.6h-1.8l-1.4-2.5h-0.4v2.5H354V18L356.7,18L356.7,18z
		 M356.6,19.3h-1V21h1c0.6,0,0.9-0.3,0.9-0.8C357.4,19.7,357.2,19.3,356.6,19.3L356.6,19.3z"/>
	<path class="st2" d="M365.9,21.3c0,1.9-1.3,3.2-3.4,3.2H360V18h2.4C364.6,18,365.9,19.3,365.9,21.3z M362.4,23.1c1.2,0,1.9-0.7,1.9-1.9
		s-0.7-1.9-1.9-1.9h-0.8v3.8C361.6,23.2,362.4,23.2,362.4,23.1z"/>
	<path class="st2" d="M369.1,24.6c-1.4,0-2.5-0.7-2.5-2h1.7c0,0.5,0.4,0.7,0.8,0.7s0.8-0.2,0.8-0.6c0-1.2-3.2-0.6-3.2-2.9c0-1.2,1-1.9,2.4-1.9
		s2.4,0.7,2.4,2h-1.7c0-0.4-0.3-0.7-0.8-0.7c-0.4,0-0.7,0.2-0.7,0.6c0,1.1,3.2,0.6,3.2,2.8C371.5,23.7,370.7,24.6,369.1,24.6
		L369.1,24.6z"/>
	<path class="st2" d="M380.3,21.3c0,1.9-1.3,3.2-3.4,3.2h-2.4V18h2.4C379,18,380.3,19.3,380.3,21.3z M376.8,23.1c1.2,0,1.9-0.7,1.9-1.9
		s-0.7-1.9-1.9-1.9H376v3.8C376,23.2,376.8,23.2,376.8,23.1z"/>
	<path class="st2" d="M381.2,18h1.6v3.9c0,0.8,0.4,1.2,1.1,1.2s1.1-0.4,1.1-1.2V18h1.6v3.9c0,1.8-1.3,2.7-2.8,2.7s-2.7-0.9-2.7-2.7L381.2,18
		L381.2,18z"/>
	<path class="st2" d="M390.7,24.5h-3V18h2.9c1.3,0,2.1,0.7,2.1,1.7c0,0.8-0.5,1.3-1.1,1.5c0.8,0.2,1.2,0.8,1.2,1.6
		C392.9,23.8,392.1,24.5,390.7,24.5L390.7,24.5z M390.3,19.3h-1v1.4h1c0.5,0,0.8-0.2,0.8-0.7S390.8,19.3,390.3,19.3L390.3,19.3z
		 M390.4,21.8h-1.1v1.4h1.2c0.5,0,0.8-0.2,0.8-0.7S391,21.8,390.4,21.8L390.4,21.8z"/>
	<path class="st2" d="M397.9,23.4h-2.4l-0.4,1.1h-1.7l2.4-6.5h1.8l2.4,6.5h-1.7L397.9,23.4L397.9,23.4z M396.7,19.8l-0.8,2.4h1.6L396.7,19.8
		L396.7,19.8z"/>
	<path class="st2" d="M400.6,18h1.6v6.5h-1.6V18z"/>
	<path class="st2" d="M357.9,33.2c1.1-0.9,2.3-1.8,2.3-2.7c0-0.4-0.2-0.6-0.5-0.6s-0.6,0.3-0.6,0.8h-1.2c0-1.3,0.9-1.8,1.8-1.8
		c1.2,0,1.7,0.7,1.7,1.6c0,1.1-1,2.1-1.9,2.7h1.9v1h-3.6L357.9,33.2L357.9,33.2z"/>
	<path class="st2" d="M364,28.9c1.5,0,2,1.1,2,2.6c0,1.5-0.5,2.7-2,2.7s-2-1.1-2-2.7S362.5,28.9,364,28.9z M364,30c-0.7,0-0.8,0.7-0.8,1.5
		s0.1,1.5,0.8,1.5s0.8-0.7,0.8-1.5S364.7,30,364,30z"/>
	<path class="st2" d="M366.6,33.2c1.1-0.9,2.3-1.8,2.3-2.7c0-0.4-0.2-0.6-0.5-0.6s-0.6,0.3-0.6,0.8h-1.2c0-1.3,0.9-1.8,1.8-1.8
		c1.2,0,1.7,0.7,1.7,1.6c0,1.1-1,2.1-1.9,2.7h1.9v1h-3.6L366.6,33.2L366.6,33.2z"/>
	<path class="st2" d="M373.2,33.3h-2.4v-1L373,29h1.4v3.2h0.6v1.1h-0.6v0.9h-1.2V33.3z M373.3,32.2v-1.8l-1.2,1.8H373.3z"/>
	<path class="st2" d="M43.8,8h1.9l1.8,4.5L49.3,8h1.9v6.5h-1.6v-3.9l-1.5,3.9h-1.3l-1.5-3.9v3.9h-1.6L43.8,8L43.8,8z"/>
	<path class="st2" d="M55.4,14.6c-1.8,0-3.3-1.4-3.3-3.3s1.5-3.3,3.3-3.3s3.3,1.4,3.3,3.3S57.3,14.6,55.4,14.6z M55.4,13.1c1,0,1.7-0.8,1.7-1.9
		s-0.7-1.9-1.7-1.9s-1.7,0.7-1.7,1.9S54.4,13.1,55.4,13.1z"/>
	<path class="st2" d="M65.4,8v6.5h-1.6l-2.7-4v4h-1.6V8h1.6l2.7,4V8H65.4z"/>
	<path class="st2" d="M70.6,9.3h-2.4v1.3h2.1v1.2h-2.1v1.4h2.4v1.3h-4V8h4V9.3L70.6,9.3z"/>
	<path class="st2" d="M71.1,8h1.8l1.3,2.7L75.4,8h1.8L75,12.4v2.1h-1.6v-2.1L71.1,8L71.1,8z"/>
	<path class="st2" d="M38.1,17.9c1.5,0,2.7,0.9,3.1,2.3h-1.7c-0.3-0.5-0.8-0.8-1.4-0.8c-1,0-1.6,0.7-1.6,1.9s0.7,1.9,1.6,1.9
		c0.6,0,1.1-0.3,1.4-0.8h1.7c-0.4,1.4-1.5,2.3-3.1,2.3c-1.9,0-3.3-1.4-3.3-3.3S36.2,18,38.1,17.9L38.1,17.9z"/>
	<path class="st2" d="M45.3,24.6c-1.8,0-3.3-1.4-3.3-3.3s1.5-3.3,3.3-3.3s3.3,1.4,3.3,3.3S47.1,24.6,45.3,24.6z M45.3,23.1c1,0,1.7-0.8,1.7-1.9
		s-0.7-1.9-1.7-1.9s-1.7,0.7-1.7,1.9S44.2,23.1,45.3,23.1z"/>
	<path class="st2" d="M55.3,18v6.5h-1.6l-2.7-4v4h-1.6V18h1.6l2.7,4v-4H55.3z"/>
	<path class="st2" d="M59.5,17.9c1.5,0,2.7,0.9,3.1,2.3h-1.7c-0.3-0.5-0.8-0.8-1.4-0.8c-1,0-1.6,0.7-1.6,1.9s0.7,1.9,1.6,1.9
		c0.6,0,1.1-0.3,1.4-0.8h1.7c-0.4,1.4-1.5,2.3-3.1,2.3c-1.9,0-3.3-1.4-3.3-3.3S57.5,18,59.5,17.9L59.5,17.9z"/>
	<path class="st2" d="M65.1,18v5.3h2.1v1.2h-3.7V18H65.1L65.1,18z"/>
	<path class="st2" d="M72,23.4h-2.4l-0.4,1.1h-1.7l2.3-6.5h1.8l2.3,6.5h-1.7L72,23.4L72,23.4z M70.8,19.8L70,22.2h1.6L70.8,19.8L70.8,19.8z"/>
	<path class="st2" d="M79.2,18h1.7l-2.3,6.5h-2L74.3,18H76l1.6,4.9C77.6,22.9,79.2,18,79.2,18z"/>
	<path class="st2" d="M85.5,19.3h-2.4v1.3h2.1v1.2h-2.1v1.4h2.4v1.3h-4V18h4V19.3L85.5,19.3z"/>
	<path class="st2" d="M51.7,33.2c1.1-0.9,2.3-1.8,2.3-2.7c0-0.4-0.2-0.6-0.5-0.6s-0.6,0.3-0.6,0.8h-1.2c0-1.3,0.9-1.8,1.8-1.8
		c1.2,0,1.7,0.7,1.7,1.6c0,1.1-1,2.1-1.8,2.7h1.9v1h-3.6L51.7,33.2L51.7,33.2z"/>
	<path class="st2" d="M57.8,28.9c1.5,0,2,1.1,2,2.6c0,1.5-0.5,2.7-2,2.7s-2-1.1-2-2.7S56.4,28.9,57.8,28.9z M57.8,30c-0.7,0-0.8,0.7-0.8,1.5
		s0.1,1.5,0.8,1.5s0.8-0.7,0.8-1.5S58.6,30,57.8,30z"/>
	<path class="st2" d="M60.5,33.2c1.1-0.9,2.3-1.8,2.3-2.7c0-0.4-0.2-0.6-0.5-0.6s-0.6,0.3-0.6,0.8h-1.2c0-1.3,0.9-1.8,1.8-1.8
		c1.2,0,1.7,0.7,1.7,1.6c0,1.1-1,2.1-1.8,2.7h1.9v1h-3.6L60.5,33.2L60.5,33.2z"/>
	<path class="st2" d="M67,33.3h-2.4v-1l2.3-3.2h1.4v3.2h0.6v1.1h-0.6v0.9H67L67,33.3L67,33.3z M67.1,32.2v-1.8l-1.2,1.8H67.1z"/>
</g>
</svg>
