<svg width="121" height="120" viewBox="0 0 121 120" fill="none" xmlns="http://www.w3.org/2000/svg">
<path d="M0.217987 60C0.217987 26.8629 27.0809 0 60.218 0V0C93.3551 0 120.218 26.8629 120.218 60V60C120.218 93.1371 93.3551 120 60.218 120V120C27.0809 120 0.217987 93.1371 0.217987 60V60Z" fill="#F5F5F5"/>
<path d="M44.026 60.2002C43.8693 63.146 45.9652 65.668 48.6878 65.8376C48.7858 65.8376 48.8837 65.8376 48.9816 65.8376C51.7239 65.8376 53.9373 63.4427 53.9177 60.4757C53.9177 57.5086 51.7043 55.1138 48.9621 55.135C46.3374 55.135 44.1632 57.3603 44.026 60.2002Z" fill="#0033AD"/>
<path d="M25.6416 58.0579C24.8974 58.0043 24.2524 58.6297 24.2194 59.4337C24.1863 60.2378 24.7486 60.9347 25.4928 60.9704C26.237 61.024 26.8654 60.3986 26.915 59.5946C26.9646 58.7905 26.3858 58.1115 25.6416 58.0579Z" fill="#0033AD"/>
<path d="M43.2806 28.7033C43.9423 28.3465 44.207 27.4546 43.8761 26.7411C43.5453 26.0276 42.7182 25.7421 42.0565 26.0989C41.3948 26.4557 41.1302 27.3297 41.461 28.0432C41.7918 28.7746 42.6024 29.0779 43.2806 28.7033Z" fill="#0033AD"/>
<path d="M48.1787 38.3371C49.2875 37.7377 49.7347 36.2683 49.1802 35.0695C48.6258 33.8707 47.2666 33.3874 46.1577 33.9867C45.0488 34.5861 44.6017 36.0556 45.1561 37.2543C45.7106 38.4531 47.0698 38.9365 48.1787 38.3371Z" fill="#0033AD"/>
<path d="M32.2356 44.1172C33.0663 44.6984 34.1738 44.4547 34.7275 43.5548C35.264 42.6549 35.039 41.455 34.2084 40.8551C33.3777 40.2739 32.2702 40.5177 31.7165 41.4175C31.1627 42.3174 31.405 43.536 32.2356 44.1172Z" fill="#0033AD"/>
<path d="M34.6934 57.0853C33.4455 57.0082 32.3937 58.0297 32.3224 59.3788C32.251 60.7278 33.1959 61.8649 34.4438 61.942C35.6917 62.0191 36.7435 60.9976 36.8148 59.6486C36.8861 58.3188 35.9413 57.1624 34.6934 57.0853Z" fill="#0033AD"/>
<path d="M32.4061 74.8034C31.5249 75.2891 31.1621 76.4472 31.6113 77.4185C32.0605 78.3711 33.1318 78.7634 34.0303 78.2777C34.9115 77.7921 35.2743 76.634 34.8251 75.6627C34.3758 74.71 33.2873 74.3178 32.4061 74.8034Z" fill="#0033AD"/>
<path d="M41.6442 51.7372C42.8998 52.6224 44.5739 52.2487 45.3746 50.8913C46.1935 49.5339 45.8477 47.724 44.5921 46.8585C43.3365 45.9732 41.6624 46.347 40.8618 47.7044C40.0429 49.0421 40.3886 50.8519 41.6442 51.7372Z" fill="#0033AD"/>
<path d="M71.1371 38.1968C72.169 38.9297 73.5746 38.6211 74.2507 37.5024C74.9268 36.3837 74.6421 34.86 73.6102 34.127C72.5782 33.3941 71.1726 33.7027 70.4965 34.8214C69.8027 35.9594 70.0873 37.4639 71.1371 38.1968Z" fill="#0033AD"/>
<path d="M76.1257 28.6251C76.7545 29.0704 77.5819 28.8745 77.9956 28.1977C78.4094 27.521 78.2273 26.6305 77.5985 26.1853C76.9696 25.74 76.1422 25.9359 75.7285 26.5949C75.3313 27.2716 75.5134 28.1799 76.1257 28.6251Z" fill="#0033AD"/>
<path d="M71.7466 55.1438C69.0186 54.974 66.6634 57.2443 66.5261 60.1936C66.369 63.1429 68.4691 65.689 71.1971 65.8376C71.2952 65.8376 71.3934 65.8376 71.4719 65.8376C74.1999 65.8376 76.4177 63.4399 76.4177 60.4695C76.4373 57.6475 74.3765 55.2923 71.7466 55.1438Z" fill="#0033AD"/>
<path d="M49.9518 52.1966C50.7943 53.9936 52.4991 55.1353 54.3802 55.1353C57.1039 55.1353 59.3182 52.7463 59.3182 49.7864C59.3182 48.9619 59.1418 48.1373 58.7891 47.3762C57.5546 44.7335 54.5762 43.6764 52.1464 45.0083C49.697 46.3614 48.7173 49.575 49.9518 52.1966Z" fill="#0033AD"/>
<path d="M88.0429 44.2225C88.925 43.735 89.271 42.5537 88.8212 41.5975C88.3715 40.6412 87.2818 40.2662 86.3996 40.7537C85.5174 41.2412 85.1715 42.4037 85.6039 43.36C86.071 44.3163 87.1434 44.71 88.0429 44.2225Z" fill="#0033AD"/>
<path d="M76.1073 46.683C74.7788 47.4119 74.2329 49.1654 74.9062 50.6037C75.5795 52.042 77.1991 52.633 78.5275 51.904C79.856 51.1751 80.4019 49.4216 79.7286 47.9833C79.0553 46.545 77.4357 45.9737 76.1073 46.683Z" fill="#0033AD"/>
<path d="M60.1136 27.8892C61.0983 27.9452 61.9448 27.1231 62.0139 26.0581C62.083 24.9931 61.3056 24.0775 60.321 24.0028C59.3363 23.9467 58.4898 24.7502 58.4207 25.8152C58.3689 26.8989 59.129 27.8144 60.1136 27.8892Z" fill="#0033AD"/>
<path d="M60.0712 41.5082C61.5648 41.6067 62.8399 40.3665 62.9127 38.7523C63.0038 37.1381 61.8563 35.7601 60.3626 35.6813C58.869 35.5829 57.594 36.8231 57.5211 38.4373C57.4483 40.0515 58.5776 41.4295 60.0712 41.5082Z" fill="#0033AD"/>
<path d="M44.3283 73.3098C45.6567 72.5819 46.2027 70.831 45.5294 69.3948C44.8561 67.9587 43.2365 67.3685 41.908 68.0964C40.5796 68.8243 40.0337 70.5752 40.707 72.0114C41.3803 73.4475 42.9999 74.0377 44.3283 73.3098Z" fill="#0033AD"/>
<path d="M61.9256 46.8526C60.4338 49.3363 61.0619 52.6479 63.3586 54.2613C65.6552 55.8746 68.7174 55.1953 70.2092 52.7116C71.701 50.2279 71.0729 46.9163 68.7763 45.303C67.9714 44.7298 67.0292 44.4326 66.0674 44.4326C64.3989 44.4326 62.8482 45.3454 61.9256 46.8526Z" fill="#0033AD"/>
<path d="M70.4808 68.786C69.2473 66.1392 66.2713 65.0805 63.8434 66.4145C61.396 67.7484 60.4171 70.9669 61.6506 73.5925C62.884 76.2393 65.8601 77.298 68.2879 75.964C70.7158 74.6512 71.7143 71.4751 70.5004 68.8283C70.5004 68.8071 70.5004 68.8071 70.4808 68.786Z" fill="#0033AD"/>
<path d="M78.7914 68.2637C77.5358 67.3785 75.8617 67.7522 75.061 69.1096C74.2421 70.467 74.5879 72.2769 75.8435 73.1425C77.099 74.0277 78.7732 73.6539 79.5738 72.2966C80.3927 70.9588 80.0469 69.149 78.7914 68.2637Z" fill="#0033AD"/>
<path d="M88.1136 59.6486C88.1849 58.2995 87.2401 57.1624 85.9922 57.0853C84.7443 57.0082 83.6925 58.0297 83.6212 59.3788C83.5499 60.7279 84.4947 61.865 85.7426 61.9421C86.9727 62.0192 88.0423 60.9784 88.1136 59.6486Z" fill="#0033AD"/>
<path d="M94.9423 58.0579C94.1976 58.0043 93.5523 58.6297 93.5192 59.4337C93.4861 60.2378 94.0487 60.9347 94.7933 60.9704C95.538 61.024 96.1668 60.3986 96.2164 59.5946C96.2495 58.7905 95.6869 58.1115 94.9423 58.0579Z" fill="#0033AD"/>
<path d="M88.2007 74.9095C87.3701 74.3284 86.2626 74.5721 85.7089 75.472C85.1724 76.3718 85.3974 77.5717 86.228 78.1716C87.0586 78.7528 88.1661 78.5091 88.7199 77.6092C89.2736 76.7093 89.0314 75.4907 88.2007 74.9095Z" fill="#0033AD"/>
<path d="M43.4053 90.4034C42.7783 89.9556 41.9534 90.1527 41.5409 90.8155C41.1284 91.4962 41.3099 92.3918 41.9204 92.8397C42.5473 93.2875 43.3723 93.0905 43.7848 92.4277C44.2138 91.7649 44.0323 90.8513 43.4053 90.4034Z" fill="#0033AD"/>
<path d="M76.2557 90.3231C75.5941 90.6798 75.3294 91.5717 75.6602 92.2853C75.9911 92.9988 76.8182 93.2842 77.4799 92.9274C78.1415 92.5707 78.4062 91.6966 78.0754 90.9831C77.7445 90.2517 76.934 89.9485 76.2557 90.3231Z" fill="#0033AD"/>
<path d="M58.5123 74.1251C59.9999 71.6464 59.3735 68.3415 57.0834 66.7102C54.7933 65.1001 51.7399 65.778 50.2327 68.2567C48.7256 70.7354 49.3715 74.0403 51.6616 75.6716C52.4641 76.2436 53.4036 76.5402 54.3627 76.5402C56.046 76.5614 57.5923 75.6504 58.5123 74.1251Z" fill="#0033AD"/>
<path d="M48.3985 81.8029C47.3666 81.07 45.961 81.3786 45.2849 82.4973C44.6088 83.616 44.8935 85.1397 45.9254 85.8727C46.9574 86.6056 48.3629 86.297 49.039 85.1783C49.7329 84.0596 49.4483 82.5359 48.3985 81.8029Z" fill="#0033AD"/>
<path d="M60.3227 92.1111C59.338 92.055 58.4916 92.8772 58.4225 93.9422C58.3534 95.0072 59.1307 95.9228 60.1154 95.9975C61.1001 96.0536 61.9466 95.2501 62.0157 94.1851C62.0675 93.1014 61.3074 92.1858 60.3227 92.1111Z" fill="#0033AD"/>
<path d="M60.3635 78.4918C58.8703 78.3933 57.5957 79.6339 57.5229 81.2486C57.4318 82.8634 58.579 84.2418 60.0721 84.3206C61.5653 84.3993 62.8399 83.1784 62.9127 81.5637C63.0038 79.9687 61.8566 78.5706 60.3635 78.4918Z" fill="#0033AD"/>
<path d="M71.3426 81.6699C70.2409 82.286 69.7967 83.7491 70.3653 84.9428C70.9339 86.1364 72.2843 86.6177 73.386 86.0016C74.4876 85.4048 74.9318 83.9417 74.381 82.7481C73.8124 81.5544 72.462 81.0539 71.3426 81.6699Z" fill="#0033AD"/>
</svg>
