<svg width="121" height="120" viewBox="0 0 121 120" fill="none" xmlns="http://www.w3.org/2000/svg">
<path d="M0.218018 60C0.218018 26.8629 27.0809 0 60.218 0V0C93.3551 0 120.218 26.8629 120.218 60V60C120.218 93.1371 93.3551 120 60.218 120V120C27.0809 120 0.218018 93.1371 0.218018 60V60Z" fill="#8DC351"/>
<path fill-rule="evenodd" clip-rule="evenodd" d="M78.4664 40.1194C75.6634 32.9552 69.0065 32.597 60.9481 34.0299L58.1451 24L52.1889 25.791L54.9918 35.4627C54.4241 35.6078 53.7988 35.8117 53.1393 36.0268C52.1709 36.3426 51.1288 36.6824 50.0867 36.8955L47.2838 26.8657L41.3275 28.6567L44.1305 38.6866C43.4297 38.8657 42.8166 39.0448 42.2035 39.2239C41.5903 39.403 40.9772 39.5821 40.2764 39.7612L32.218 42.6269L33.9698 49.0746C33.9698 49.0746 38.5246 47.6418 38.1742 47.6418C40.6268 46.9254 41.6779 48 42.3786 49.4328L45.5319 60.8955H46.2327L45.5319 61.2537L50.0867 77.3731C50.0867 78.0896 50.0867 79.5224 48.3349 80.2388L44.1305 81.6716L44.8312 89.194L52.5393 87.0448L56.7437 85.9701L59.5466 96L65.5028 94.209L62.6999 84.1791C64.4517 83.8209 65.8532 83.4627 67.605 82.7463L70.4079 92.7761L76.3642 90.9851L73.5612 80.9552C83.3715 77.3731 89.6781 72.7164 87.9263 62.6866C86.5248 54.806 81.97 52.2985 75.6634 52.6567C79.1671 49.0746 80.5686 45.4925 78.4664 40.1194ZM76.3643 64.4776C78.2175 71.1087 68.3634 74.1212 63.1223 75.7235C62.4178 75.9389 61.7967 76.1287 61.2986 76.2985L57.4446 62.6866C57.9971 62.5453 58.6889 62.336 59.4793 62.0969C64.7029 60.5165 74.2341 57.6328 76.3643 64.4776ZM56.6702 56.3091C60.8592 55.092 69.8894 52.4683 67.9561 46.2094C66.3714 39.7284 57.6184 42.6281 53.3696 44.0357C52.9216 44.1841 52.5238 44.3159 52.1897 44.4184L55.6933 56.5975C55.9749 56.5111 56.3041 56.4155 56.6702 56.3091Z" fill="white"/>
</svg>
