<svg width="121" height="120" viewBox="0 0 121 120" fill="none" xmlns="http://www.w3.org/2000/svg">
<path d="M0.218018 60C0.218018 26.8629 27.0809 0 60.218 0V0C93.3551 0 120.218 26.8629 120.218 60V60C120.218 93.1371 93.3551 120 60.218 120V120C27.0809 120 0.218018 93.1371 0.218018 60V60Z" fill="#F7931A"/>
<path fill-rule="evenodd" clip-rule="evenodd" d="M88.0816 52.9447C89.2467 45.3791 83.3159 41.3124 75.206 38.5995L77.837 28.3513L71.4135 26.7968L68.8524 36.7752C67.1637 36.3662 65.4295 35.9807 63.7059 35.5987L66.2856 25.5545L59.8661 24L57.2337 34.2448C55.8363 33.9358 54.4638 33.6304 53.1321 33.3087L53.1396 33.2764L44.2815 31.1281L42.5727 37.7911C42.5727 37.7911 47.3384 38.8521 47.238 38.9174C49.8391 39.5479 50.3095 41.2201 50.2314 42.5456L47.2346 54.2207C47.4137 54.2649 47.646 54.3288 47.9024 54.4288L47.7158 54.3836L47.7156 54.3835C47.5572 54.345 47.3925 54.305 47.2234 54.2657L43.0228 70.6208C42.7049 71.3883 41.8981 72.5401 40.0794 72.1027C40.1438 72.1933 35.4108 70.9712 35.4108 70.9712L32.2216 78.1121L40.5807 80.1359C41.496 80.3588 42.4004 80.5878 43.2956 80.8144L43.296 80.8145C43.9218 80.973 44.5431 81.1303 45.1604 81.2836L42.5023 91.6493L48.9184 93.2037L51.5507 82.948C53.3035 83.4102 55.0045 83.8364 56.6698 84.2382L54.0463 94.4455L60.4701 96L63.1279 85.6538C74.0813 87.667 82.3174 86.8553 85.7841 77.2335C88.5775 69.4868 85.645 65.0185 79.8825 62.1047C84.0796 61.1646 87.241 58.4836 88.0839 52.9455L88.0819 52.9441L88.0816 52.9447ZM73.284 73.3313C71.4926 80.5734 60.2251 77.5793 55.0699 76.2094C54.6061 76.0862 54.1918 75.9761 53.8384 75.8878L57.3079 61.8947C57.7387 62.0029 58.2651 62.1218 58.8615 62.2564C64.194 63.4604 75.1195 65.9272 73.2843 73.3313H73.284ZM59.7968 55.7304C64.1361 56.8683 73.6022 59.3507 75.2508 52.8603H75.2514C76.9348 46.2222 67.7353 44.2209 63.2423 43.2434C62.7368 43.1335 62.291 43.0365 61.9268 42.9473L58.751 55.4613C59.0508 55.5347 59.4027 55.627 59.7968 55.7304Z" fill="white"/>
</svg>
