<svg width="120" height="120" viewBox="0 0 120 120" fill="none" xmlns="http://www.w3.org/2000/svg">
<path d="M0 60.0005C0 26.8634 26.8629 0.000488281 60 0.000488281C93.1371 0.000488281 120 26.8634 120 60.0005C120 93.1376 93.1371 120 60 120C26.8629 120 0 93.1376 0 60.0005Z" fill="#008CE7"/>
<path d="M71.1317 23.9038H44.8614L42.6879 38.8581L66.3802 38.9025C78.0458 38.9025 81.5083 44.1123 81.3964 52.7598C81.3459 57.1923 79.7753 64.6895 79.1109 67.1056C77.3165 73.5901 73.6193 80.9717 59.7621 80.9495L36.7341 80.9318L34.5605 95.9038H60.7622C70.0016 95.9038 73.937 94.5758 78.0928 92.2174C87.3141 86.9854 92.8057 75.7797 95.0117 61.1541C98.2829 39.3911 94.203 23.9038 71.128 23.9038H71.1317Z" fill="white"/>
<path d="M59.3548 58.5133C60.2095 54.0297 60.48 52.2317 60.48 52.2317H33.6258C26.759 52.2317 25.778 57.876 25.1252 61.2899C24.2705 65.7553 24 67.576 24 67.576H50.8578C57.721 67.576 58.702 61.9317 59.3548 58.5133Z" fill="white"/>
</svg>
