<svg width="121" height="121" viewBox="0 0 121 121" fill="none" xmlns="http://www.w3.org/2000/svg">
<path d="M0.937012 60.5C0.937012 27.3629 27.7999 0.5 60.937 0.5C94.0741 0.5 120.937 27.3629 120.937 60.5C120.937 93.6371 94.0741 120.5 60.937 120.5C27.7999 120.5 0.937012 93.6371 0.937012 60.5Z" fill="#F5F5F5"/>
<path d="M60.9307 24.5L60.4937 26.1408V73.7485L60.9307 74.2304L80.9243 61.1678L60.9307 24.5Z" fill="#343434"/>
<path d="M60.9312 78.4152L60.6849 78.7472V95.7058L60.9312 96.5006L80.9371 65.3594L60.9312 78.4152Z" fill="#3C3C3B"/>
<path d="M60.9312 78.415V96.5L40.937 65.3594L60.9312 78.415ZM60.9312 74.2305L40.937 61.168L60.9312 24.5V74.2305Z" fill="#8C8C8C"/>
<path d="M60.9312 74.2305L80.9248 61.1679L60.9312 51.123V74.2305Z" fill="#141414"/>
<path d="M40.937 61.1679L60.9311 74.2305V51.123L40.937 61.1679Z" fill="#393939"/>
</svg>
