<svg width="50" height="50" viewBox="0 0 50 50" fill="none" xmlns="http://www.w3.org/2000/svg">
<path d="M25 50.001C38.8071 50.001 50 38.8081 50 25.001C50 11.1939 38.8071 0.000976562 25 0.000976562C11.1929 0.000976562 0 11.1939 0 25.001C0 38.8081 11.1929 50.001 25 50.001Z" fill="#2196F3"/>
<path d="M31.665 32.1979C30.6384 32.8961 29.512 33.251 28.3137 33.251C25.7808 33.251 23.5852 31.579 22.3942 29.1253H26.938C27.6799 29.101 28.2688 28.4926 28.2688 27.7503C28.2688 27.008 27.6799 26.3995 26.938 26.3753H21.5538C21.483 25.9205 21.4442 25.4612 21.438 25.001C21.438 24.5317 21.4908 24.0741 21.5538 23.6253H28.3122C29.0465 23.5913 29.6244 22.9861 29.6244 22.251C29.6244 21.5159 29.0465 20.9107 28.3122 20.8767H22.3957C23.5852 18.423 25.7808 16.751 28.3122 16.751C29.512 16.751 30.6398 17.1059 31.665 17.8041C31.9655 18.0103 32.3357 18.0883 32.6938 18.0209C33.0518 17.9534 33.3683 17.7461 33.5732 17.4447C33.7789 17.1431 33.8563 16.7721 33.7884 16.4134C33.7204 16.0547 33.5127 15.7377 33.2109 15.5322C31.7698 14.5394 30.0622 14.0056 28.3122 14.001C24.2848 14.001 20.8352 16.8522 19.4037 20.8767H17.3137C16.5794 20.9107 16.0015 21.5159 16.0015 22.251C16.0015 22.9861 16.5794 23.5913 17.3137 23.6253H18.8097C18.7598 24.0829 18.688 24.5302 18.688 25.001C18.688 25.4703 18.7598 25.9191 18.8082 26.3767H17.3122C16.5779 26.4107 16 27.0159 16 27.751C16 28.4861 16.5779 29.0913 17.3122 29.1253H19.4037C20.8352 33.1498 24.2848 36.001 28.3137 36.001C30.0631 35.9961 31.7702 35.4623 33.2109 34.4698C33.8385 34.042 34.0006 33.1865 33.5732 32.5587C33.1446 31.9351 32.2932 31.774 31.6665 32.1979H31.665Z" fill="white"/>
</svg>
