<svg width="120" height="121" viewBox="0 0 120 121" fill="none" xmlns="http://www.w3.org/2000/svg">
<g clip-path="url(#clip0_470_79207)">
<path d="M60 120.941C93.1371 120.941 120 94.0785 120 60.9414C120 27.8043 93.1371 0.941406 60 0.941406C26.8629 0.941406 0 27.8043 0 60.9414C0 94.0785 26.8629 120.941 60 120.941Z" fill="#00DCFA"/>
<path d="M73.512 17C58.032 17 44.884 28.904 43.232 44.228C27.9 45.884 16 59.032 16 74.508C16.0042 82.593 19.2176 90.3457 24.9342 96.063C30.6507 101.78 38.403 104.995 46.488 105C61.968 105 75.168 93.096 76.768 77.772C92.096 76.116 104 62.968 104 47.492C103.996 39.407 100.782 31.6543 95.0658 25.937C89.3493 20.2197 81.597 17.0053 73.512 17ZM96.856 50.904C96.0948 55.9043 93.7552 60.5303 90.1787 64.1067C86.6023 67.6832 81.9763 70.0228 76.976 70.784V50.904H96.856ZM23.144 71.096C23.895 66.0863 26.2301 61.4486 29.8074 57.862C33.3847 54.2753 38.0163 51.9281 43.024 51.164V71.044H23.144V71.096ZM69.836 77.976C69.0101 83.5767 66.1968 88.6933 61.91 92.391C57.6233 96.0888 52.1492 98.1209 46.488 98.116C40.8278 98.1209 35.3548 96.0892 31.0688 92.3922C26.7828 88.6952 23.9699 83.5796 23.144 77.98H69.836V77.976ZM70.096 50.904V71.044H49.904V50.904H70.096ZM96.856 44.024H50.164C50.9899 38.4233 53.8032 33.3067 58.09 29.609C62.3767 25.9112 67.8508 23.8791 73.512 23.884C79.1722 23.8791 84.6452 25.9108 88.9312 29.6078C93.2172 33.3048 96.0301 38.4204 96.856 44.02V44.024Z" fill="white"/>
</g>
<defs>
<clipPath id="clip0_470_79207">
<rect width="120" height="120" fill="white" transform="translate(0 0.941406)"/>
</clipPath>
</defs>
</svg>
