<svg width="121" height="120" viewBox="0 0 121 120" fill="none" xmlns="http://www.w3.org/2000/svg">
<path d="M0.218018 60C0.218018 26.8629 27.0809 0 60.218 0V0C93.3551 0 120.218 26.8629 120.218 60V60C120.218 93.1371 93.3551 120 60.218 120V120C27.0809 120 0.218018 93.1371 0.218018 60V60Z" fill="#345D9D"/>
<path d="M70.3101 19.0014C70.7472 18.9861 71.1729 19.1453 71.4927 19.4448C71.8125 19.7443 72.0003 20.1594 72.0151 20.5981V21.1401L62.0659 55.0756L71.4468 52.2241L69.4565 59.0678L59.9341 61.7768L53.8218 82.4526H86.5122C86.9496 82.4372 87.3759 82.5964 87.6958 82.8959C88.0157 83.1954 88.2034 83.6106 88.2183 84.0492V84.5912L85.3755 94.4301C85.1172 95.3881 84.2321 96.0395 83.2437 95.9985H33.2134L41.5991 67.3383L32.2183 70.1899L34.3501 63.6313L43.731 60.7787L55.5278 20.5698C55.795 19.6178 56.6743 18.971 57.6597 19.0014H70.3101Z" fill="white"/>
</svg>
