<svg width="51" height="50" viewBox="0 0 51 50" fill="none" xmlns="http://www.w3.org/2000/svg">
<path d="M26 50.001C39.8071 50.001 51 38.8081 51 25.001C51 11.1939 39.8071 0.000976562 26 0.000976562C12.1929 0.000976562 1 11.1939 1 25.001C1 38.8081 12.1929 50.001 26 50.001Z" fill="#F5F5F5"/>
<path d="M24.949 22.1533V37.0009C24.9223 36.9989 24.895 36.9974 24.8682 36.9953L16.9416 33.3536C16.1955 32.6101 15.5416 31.7739 15 30.8636V17.5822L15.1869 17.6682L24.949 22.1533Z" fill="#9FD500"/>
<path d="M36.6912 18.1415V30.8627C36.339 31.4548 35.9395 32.015 35.4977 32.5392L26.7421 28.5164V21.8167L36.6912 18.1415Z" fill="#72BE15"/>
<path d="M26.7416 13.001L36.6908 17.5722L25.3741 21.6356L15.425 17.0643L26.7416 13.001Z" fill="url(#paint0_linear_3_281)"/>
<defs>
<linearGradient id="paint0_linear_3_281" x1="26.0579" y1="13.001" x2="26.0579" y2="21.6356" gradientUnits="userSpaceOnUse">
<stop stop-color="#7BCC12"/>
<stop offset="1" stop-color="#52BA00"/>
</linearGradient>
</defs>
</svg>
