<svg width="50" height="50" viewBox="0 0 50 50" fill="none" xmlns="http://www.w3.org/2000/svg">
<circle cx="25" cy="25.001" r="25" fill="#002868"/>
<path fill-rule="evenodd" clip-rule="evenodd" d="M14.08 38.001H35.92C37.064 38.001 38 37.065 38 35.921V14.081C38 12.937 37.064 12.001 35.92 12.001H14.08C12.936 12.001 12 12.937 12 14.081V35.921C12 37.065 12.936 38.001 14.08 38.001ZM27.9984 32.1044C28.04 32.1867 28.0746 32.2283 28.1847 32.2283V32.2292H28.9439C29.047 32.2292 29.0748 32.1668 29.054 32.0706C28.9023 31.216 28.1648 30.644 27.104 30.644C25.9262 30.644 25.1748 31.2706 25.1748 32.146C25.1748 33.0213 25.836 33.2969 26.7868 33.4208C27.6136 33.5248 28.027 33.6002 28.027 34.0206C28.027 34.3716 27.6344 34.5371 27.1863 34.5371C26.6767 34.5371 26.3248 34.2823 26.2217 33.9512C26.194 33.8758 26.1385 33.8342 26.0423 33.8342H25.284C25.1878 33.8342 25.1392 33.8689 25.1531 33.9651C25.284 34.9635 26.1246 35.4393 27.1031 35.4393C28.2324 35.4393 29.1146 34.9089 29.1146 33.9027C29.1146 33.0074 28.4672 32.6625 27.3371 32.5316C26.5935 32.4424 26.2555 32.3115 26.2555 31.9943C26.2555 31.7048 26.6204 31.5532 27.0546 31.5532C27.5364 31.5532 27.8536 31.7664 27.9984 32.1044ZM17.0718 35.3837C17.0033 35.3837 16.9479 35.3213 16.9479 35.2528V31.7593C16.9479 31.6908 16.8924 31.6284 16.8239 31.6284H15.5907C15.5213 31.6284 15.4598 31.573 15.4598 31.5045V30.8294C15.4598 30.7609 15.5222 30.6985 15.5907 30.6985H19.3867C19.4551 30.6985 19.5175 30.76 19.5175 30.8294V31.5045C19.5175 31.573 19.4551 31.6284 19.3867 31.6284H18.1603C18.0919 31.6284 18.0295 31.69 18.0295 31.7593V35.2528C18.0295 35.3213 17.974 35.3837 17.9055 35.3837H17.0718ZM23.306 30.8294C23.306 30.7609 23.3614 30.6985 23.4299 30.6985H24.2567C24.3252 30.6985 24.3876 30.76 24.3876 30.8294V33.2136C24.3876 34.6262 23.5885 35.4461 22.3206 35.4461C21.0596 35.4461 20.2674 34.6262 20.2674 33.2136V30.8294C20.2674 30.7609 20.3229 30.6985 20.3914 30.6985H21.2182C21.2866 30.6985 21.349 30.76 21.349 30.8294V33.2474C21.349 33.9433 21.707 34.439 22.3275 34.439C22.948 34.439 23.306 33.9433 23.306 33.2474V30.8294ZM30.0513 35.3837C29.9828 35.3837 29.9274 35.3213 29.9274 35.2528V30.8294C29.9274 30.7609 29.9828 30.6985 30.0513 30.6985H31.925C33.3169 30.6985 34.3985 31.6562 34.3985 33.055C34.3985 34.433 33.3308 35.3837 31.925 35.3837H30.0513ZM31.925 34.4529C32.6764 34.4529 33.2614 33.8601 33.2614 33.0402C33.2614 32.2204 32.6756 31.6276 31.9181 31.6276H31.1398C31.0714 31.6276 31.0159 31.6891 31.0159 31.7584V34.3281C31.0159 34.3966 31.0714 34.452 31.1398 34.452H31.925V34.4529ZM37.3072 28.1207H12.6939C12.5032 28.1207 12.3472 27.9647 12.3472 27.7741V14.0807C12.3472 13.1274 13.1272 12.3474 14.0805 12.3474H35.9205C36.8739 12.3474 37.6539 13.1274 37.6539 14.0807V27.7741C37.6539 27.9647 37.4979 28.1207 37.3072 28.1207ZM26.2768 25.3098H24.0235C23.8805 25.3098 23.7635 25.1928 23.7635 25.0498V18.03H19.8867C19.7437 18.03 19.6267 17.913 19.6267 17.77V15.5166C19.6267 15.3736 19.7437 15.2566 19.8867 15.2566H24.0133L24.0235 15.2564H26.2768L26.287 15.2566H30.1134C30.2564 15.2566 30.3734 15.3736 30.3734 15.5166V17.77C30.3734 17.913 30.2564 18.03 30.1134 18.03H26.5368V25.0498C26.5368 25.1928 26.4198 25.3098 26.2768 25.3098Z" fill="white"/>
</svg>
