<svg width="120" height="120" viewBox="0 0 120 120" fill="none" xmlns="http://www.w3.org/2000/svg">
<path d="M0 60C0 26.8629 26.8629 0 60 0C93.1371 0 120 26.8629 120 60C120 93.1371 93.1371 120 60 120C26.8629 120 0 93.1371 0 60Z" fill="#77A339"/>
<path d="M57.8745 90.8193V28.8193H61.9137V90.8193H57.8745ZM71.4698 47.2092C71.1742 44.7134 69.9756 42.7759 67.8739 41.3967C65.7722 40.0174 63.1944 39.3278 60.1404 39.3278C57.9073 39.3278 55.9534 39.689 54.2786 40.4115C52.6203 41.134 51.3231 42.1273 50.3872 43.3916C49.4677 44.6559 49.008 46.0926 49.008 47.7018C49.008 49.0481 49.3282 50.2057 49.9685 51.1745C50.6253 52.1268 51.4627 52.9231 52.4807 53.5635C53.4987 54.1875 54.566 54.7047 55.6825 55.1152C56.799 55.5092 57.8252 55.8294 58.7611 56.0757L63.884 57.4549C65.1976 57.7997 66.6589 58.2759 68.268 58.8834C69.8935 59.4909 71.4451 60.3201 72.9229 61.371C74.4171 62.4054 75.6485 63.7354 76.6173 65.3609C77.586 66.9864 78.0704 68.9814 78.0704 71.3458C78.0704 74.0715 77.3561 76.5344 75.9277 78.7346C74.5156 80.9348 72.4467 82.6835 69.7211 83.9806C67.0119 85.2778 63.7198 85.9263 59.8448 85.9263C56.2325 85.9263 53.1046 85.3434 50.4611 84.1777C47.834 83.0119 45.7652 81.3863 44.2546 79.3011C42.7604 77.2158 41.9148 74.7939 41.7178 72.0354H48.0228C48.187 73.9401 48.8274 75.5164 49.9439 76.7642C51.0768 77.9957 52.5053 78.9152 54.2294 79.5227C55.9698 80.1138 57.8417 80.4094 59.8448 80.4094C62.1764 80.4094 64.2699 80.0317 66.1253 79.2764C67.9807 78.5047 69.4502 77.4375 70.5339 76.0746C71.6176 74.6954 72.1594 73.0863 72.1594 71.2473C72.1594 69.5725 71.6914 68.2097 70.7555 67.1588C69.8196 66.108 68.5882 65.2542 67.0612 64.5974C65.5342 63.9406 63.884 63.3659 62.1107 62.8734L55.9042 61.1001C51.9635 59.9671 48.8438 58.3498 46.5451 56.2481C44.2464 54.1464 43.097 51.3961 43.097 47.9973C43.097 45.1731 43.8605 42.7102 45.3875 40.6085C46.9309 38.4904 48.9998 36.8485 51.5941 35.6827C54.2047 34.5005 57.1192 33.9094 60.3374 33.9094C63.5885 33.9094 66.4783 34.4923 69.0069 35.6581C71.5355 36.8074 73.5386 38.3837 75.0164 40.3869C76.5105 42.39 77.2987 44.6641 77.3808 47.2092H71.4698Z" fill="white"/>
</svg>
