<svg width="50" height="50" viewBox="0 0 50 50" fill="none" xmlns="http://www.w3.org/2000/svg">
<g clip-path="url(#clip0_1139_1539)">
<path d="M25 50.001C38.8071 50.001 50 38.8081 50 25.001C50 11.1939 38.8071 0.000976562 25 0.000976562C11.1929 0.000976562 0 11.1939 0 25.001C0 38.8081 11.1929 50.001 25 50.001Z" fill="url(#paint0_linear_1139_1539)"/>
<path fill-rule="evenodd" clip-rule="evenodd" d="M27.3438 7.42285C27.3438 7.20712 27.1689 7.03223 26.9531 7.03223H23.0469C22.8311 7.03223 22.6562 7.20712 22.6562 7.42285V12.501H19.1406C15.0416 12.501 11.7188 15.8238 11.7188 19.9229C11.7188 24.0219 15.0416 27.3447 19.1406 27.3447H22.6562V32.8135H13.6719C13.4561 32.8135 13.2812 32.9883 13.2812 33.2041V37.1104C13.2812 37.3261 13.4561 37.501 13.6719 37.501H22.6562V42.5791C22.6562 42.7949 22.8311 42.9697 23.0469 42.9697H26.9531C27.1689 42.9697 27.3438 42.7949 27.3438 42.5791V37.501H30.8594C34.9584 37.501 38.2812 34.1782 38.2812 30.0791C38.2812 25.98 34.9584 22.6572 30.8594 22.6572H27.3438V17.1885H36.3281C36.5439 17.1885 36.7188 17.0136 36.7188 16.7979V12.8916C36.7188 12.6759 36.5439 12.501 36.3281 12.501H27.3438V7.42285ZM27.3438 27.3447H22.6562V22.6572H27.3438V27.3447ZM22.6562 22.6572H19.1406C17.6305 22.6572 16.4062 21.433 16.4062 19.9229C16.4062 18.4127 17.6305 17.1885 19.1406 17.1885H22.6562V22.6572ZM27.3438 32.8135H30.8594C32.3695 32.8135 33.5938 31.5893 33.5938 30.0791C33.5938 28.5689 32.3695 27.3447 30.8594 27.3447H27.3438V32.8135Z" fill="white"/>
</g>
<defs>
<linearGradient id="paint0_linear_1139_1539" x1="43.6397" y1="9.31712" x2="6.43964" y2="40.6171" gradientUnits="userSpaceOnUse">
<stop stop-color="#75D020"/>
<stop offset="1" stop-color="#005136"/>
</linearGradient>
<clipPath id="clip0_1139_1539">
<rect width="50" height="50" fill="white" transform="translate(0 0.000976562)"/>
</clipPath>
</defs>
</svg>
