<svg width="120" height="120" viewBox="0 0 120 120" fill="none" xmlns="http://www.w3.org/2000/svg">
<path d="M0 60.002C0 26.8649 26.8629 0.00195312 60 0.00195312C93.1371 0.00195312 120 26.8649 120 60.002C120 93.139 93.1371 120.002 60 120.002C26.8629 120.002 0 93.139 0 60.002Z" fill="#50AF95"/>
<path fill-rule="evenodd" clip-rule="evenodd" d="M67.1148 62.5206C66.7077 62.5537 64.6042 62.69 59.912 62.69C56.18 62.69 53.5303 62.5685 52.6007 62.5206C38.1782 61.8318 27.413 59.1062 27.413 55.8428C27.413 52.5794 38.1782 49.8574 52.6007 49.1576V59.806C53.5439 59.8797 56.2445 60.0528 59.9765 60.0528C64.4549 60.0528 66.6975 59.8502 67.1012 59.8097V49.1649C81.4932 49.8611 92.2346 52.5867 92.2346 55.8428C92.2346 59.0988 81.4966 61.8244 67.1012 62.5169L67.1148 62.5206ZM67.1149 48.0613V38.5326H87.69V24.002H31.9612V38.5326H52.5974V48.0576C36.2749 48.8716 24 52.3818 24 56.5881C24 60.7944 36.2749 64.3009 52.5974 65.1186V95.6532H67.1115V65.1076C83.3966 64.2936 95.6512 60.7871 95.6512 56.5844C95.6512 52.3818 83.4068 48.8753 67.1115 48.0576L67.1149 48.0613Z" fill="white"/>
</svg>
