<svg width="50" height="50" viewBox="0 0 50 50" fill="none" xmlns="http://www.w3.org/2000/svg">
<path d="M25 50.001C38.8071 50.001 50 38.8081 50 25.001C50 11.1939 38.8071 0.000976562 25 0.000976562C11.1929 0.000976562 0 11.1939 0 25.001C0 38.8081 11.1929 50.001 25 50.001Z" fill="#79B5E4"/>
<path d="M9.08778 15.7589C10.3832 12.5202 25.281 11.2248 30.4629 12.1964C29.4913 12.1964 25.6049 14.7873 24.9572 17.0543C24.5294 18.5514 24.9572 27.7419 16.8605 27.7419C9.60133 27.7419 8.65596 19.8612 9.08778 15.7589Z" fill="white"/>
<path d="M25.281 43.2875C18.156 41.6681 13.5718 32.1216 11.3548 27.4181C11.8406 28.2595 16.1927 29.61 18.4798 29.0374C19.9902 28.6593 27.0867 23.5317 31.5754 30.7025C35.4271 36.8556 29.1674 42.3159 25.281 43.2875Z" fill="white"/>
<path d="M41.1504 15.759C42.4037 21.6763 37.6596 31.8288 34.3492 35.8387C34.9034 35.0407 34.3493 29.3614 31.4345 27.7421C30.0734 26.9859 23.3378 22.5602 27.2242 16.0829C30.4629 10.6851 39.855 12.8442 41.1504 15.759Z" fill="white"/>
</svg>
