<svg width="120" height="120" viewBox="0 0 120 120" fill="none" xmlns="http://www.w3.org/2000/svg">
<g clip-path="url(#clip0_22_315232)">
<path d="M21 79.3403H0V91.2411H34V60.0015L60 85.7866L86 60.0015V91.2411H120V79.3403H99V29.2577L60 67.9353L21 29.2577V79.3403Z" fill="white"/>
<path d="M0 79.3403H21V29.2577L60 67.9353L99 29.2577V79.3403H120V0.00146484H0V79.3403Z" fill="#F26822"/>
<path d="M120 91.2411H86V60.0015L60 85.7866L34 60.0015V91.2411H0V120.001H120V91.2411Z" fill="#4D4D4D"/>
</g>
<defs>
<clipPath id="clip0_22_315232">
<path d="M0 60.0015C0 26.8644 26.8629 0.00146484 60 0.00146484C93.1371 0.00146484 120 26.8644 120 60.0015C120 93.1385 93.1371 120.001 60 120.001C26.8629 120.001 0 93.1385 0 60.0015Z" fill="white"/>
</clipPath>
</defs>
</svg>
