<svg width="121" height="120" viewBox="0 0 121 120" fill="none" xmlns="http://www.w3.org/2000/svg">
<path d="M0.218018 60C0.218018 26.8629 27.0809 0 60.218 0V0C93.3551 0 120.218 26.8629 120.218 60V60C120.218 93.1371 93.3551 120 60.218 120V120C27.0809 120 0.218018 93.1371 0.218018 60V60Z" fill="#23292F"/>
<path d="M104.23 24H91.4612L71.2576 43.1185C65.1372 48.8888 55.3073 48.8888 49.1869 43.1185L28.9988 24H16.2198L42.8026 49.1679C52.4325 58.2774 68.0344 58.2774 77.6574 49.1679L104.23 24Z" fill="white"/>
<path d="M16.2198 96H28.9486L49.239 76.8193C55.3362 71.0769 65.1289 71.0769 71.2261 76.8193L91.5096 96H104.23L77.5862 70.7992C67.9927 61.7336 52.45 61.7336 42.8635 70.7992L16.2198 96Z" fill="white"/>
</svg>
